<svg id="Capa_1" enable-background="new 0 0 501 501" height="512" viewBox="0 0 501 501" width="512" xmlns="http://www.w3.org/2000/svg"><g><path d="m256.267 470.889c-.151 13.888-12.191 24.689-26.007 23.275-.087-.009-.174-.018-.259-.027-122.982-12.972-218.837-116.931-219.001-243.313-.176-135.917 109.073-245.319 244.99-245.324 116.272-.004 213.628 80.986 238.726 189.63 3.35 14.501-7.8 28.318-22.683 28.318-118.056 0-214.115 95.024-215.395 213.073z" fill="#453d83"/><path d="m140 394.5c0 5.523-4.477 10-10 10s-10-4.477-10-10 4.477-10 10-10 10 4.477 10 10zm25-10c-5.523 0-10 4.477-10 10s4.477 10 10 10 10-4.477 10-10-4.477-10-10-10zm35 0c-5.523 0-10 4.477-10 10s4.477 10 10 10 10-4.477 10-10-4.477-10-10-10z" fill="#958fca"/><path d="m273 125.5v29h49c5.523 0 10 4.477 10 10v32c0 5.523-4.477 10-10 10h-49v29h49c5.523 0 10 4.477 10 10v32c0 5.523-4.477 10-10 10h-49v49c0 5.523-4.477 10-10 10h-32c-5.523 0-10-4.477-10-10v-49h-29v49c0 5.523-4.477 10-10 10h-32c-5.523 0-10-4.477-10-10v-49h-29v49c0 5.523-4.477 10-10 10h-32c-5.523 0-10-4.477-10-10v-49h-49c-5.523 0-10-4.477-10-10v-32c0-5.523 4.477-10 10-10h49v-29h-49c-5.523 0-10-4.477-10-10v-32c0-5.523 4.477-10 10-10h49v-29h-49c-5.523 0-10-4.477-10-10v-32c0-5.523 4.477-10 10-10h49v-49c0-5.523 4.477-10 10-10h32c5.523 0 10 4.477 10 10v49h29v-49c0-5.523 4.477-10 10-10h32c5.523 0 10 4.477 10 10v49h29v-49c0-5.523 4.477-10 10-10h32c5.523 0 10 4.477 10 10v49h49c5.523 0 10 4.477 10 10v32c0 5.523-4.477 10-10 10z" fill="#eac23f"/><path d="m81 164.5v32c0 5.523 4.477 10 10 10h-81c-5.523 0-10-4.477-10-10v-32c0-5.523 4.477-10 10-10h81c-5.523 0-10 4.477-10 10zm0-49v-32c0-5.523 4.477-10 10-10h-81c-5.523 0-10 4.477-10 10v32c0 5.523 4.477 10 10 10h81c-5.523 0-10-4.477-10-10zm10 120h-81c-5.523 0-10 4.477-10 10v32c0 5.523 4.477 10 10 10h81c-5.523 0-10-4.477-10-10v-32c0-5.523 4.477-10 10-10z" fill="#e1b91e"/><path d="m281 315.5h-230c-11.046 0-20-8.954-20-20v-230c0-11.046 8.954-20 20-20h230c11.046 0 20 8.954 20 20v230c0 11.046-8.954 20-20 20z" fill="#54a770"/><path d="m281 315.5h-188.667c-11.046 0-20-8.954-20-20v-230c0-11.046 8.954-20 20-20h188.667c11.046 0 20 8.954 20 20v230c0 11.046-8.954 20-20 20z" fill="#69b482"/><path d="m162.078 237.641c0 12.781 10.361 23.141 23.141 23.141 9.49 0 17.645-5.712 21.216-13.885h65.565v34.603c0 2.761-2.239 5-5 5h-140.885v-66.565c8.173-3.571 13.885-11.726 13.885-21.216 0-12.781-10.361-23.141-23.141-23.141-12.781 0-23.141 10.361-23.141 23.141 0 9.49 5.712 17.645 13.885 21.216v66.565h-42.603c-2.761 0-5-2.239-5-5v-147.167h73.565c3.571 8.173 11.726 13.885 21.216 13.885 12.781 0 23.141-10.361 23.141-23.141s-10.361-23.141-23.141-23.141c-9.49 0-17.645 5.712-21.216 13.885h-73.565v-36.321c0-2.761 2.239-5 5-5h136.063v75.643c-8.173 3.571-13.885 11.726-13.885 21.216 0 12.781 10.361 23.141 23.141 23.141 12.781 0 23.141-10.361 23.141-23.141 0-9.489-5.712-17.645-13.885-21.216v-75.643h47.425c2.761 0 5 2.239 5 5v148.885h-65.565c-3.571-8.173-11.726-13.885-21.216-13.885-12.78 0-23.141 10.361-23.141 23.141z" fill="#3d7a51"/><path d="m269 495.161c-4.305.225-8.639.339-13 .339-8.782 0-17.457-.462-26-1.364v-219.636c0-11.046 8.954-20 20-20h19z" fill="#c8e2fd"/><path d="m259 495.482v-220.982c0-11.046 8.954-20 20-20h221.968c-2.12 132.467-109.373 239.391-241.968 240.982z" fill="#e9f3fe"/><path d="m261.5 274.5h-31.5v-20c0-11.046 8.954-20 20-20h11.5c11.046 0 20 8.954 20 20 0 11.046-8.954 20-20 20z" fill="#1380e2"/><path d="m499.839 274.5h-240.839v-20c0-11.046 8.954-20 20-20h221.486c.341 5.289.514 10.625.514 16 0 8.098-.393 16.104-1.161 24z" fill="#55a4f9"/><path d="m300.667 254.5h-70.667v-40c0-11.046 8.954-20 20-20h30.667c11.046 0 20 8.954 20 20z" fill="#55a4f9"/><path d="m500.968 254.5h-241.968v-40c0-11.046 8.954-20 20-20h215.571c4.205 17.985 6.429 36.733 6.429 56 0 1.336-.011 2.669-.032 4z" fill="#86befb"/><path d="m269 224.5c0 5.523-4.477 10-10 10s-10-4.477-10-10 4.477-10 10-10 10 4.477 10 10zm70-10c-5.523 0-10 4.477-10 10s4.477 10 10 10 10-4.477 10-10-4.477-10-10-10zm-40 0c-5.523 0-10 4.477-10 10s4.477 10 10 10 10-4.477 10-10-4.477-10-10-10z" fill="#1380e2"/><path d="m330 347.806c0 5.523-4.477 10-10 10h-40c-5.523 0-10-4.477-10-10s4.477-10 10-10h40c5.523 0 10 4.477 10 10z" fill="#86befb"/><path d="m270 387.806c0-5.523 4.477-10 10-10h20c5.523 0 10 4.477 10 10s-4.477 10-10 10h-20c-5.523 0-10-4.477-10-10zm30 30h-20c-5.523 0-10 4.477-10 10s4.477 10 10 10h20c5.523 0 10-4.477 10-10s-4.477-10-10-10zm0 40h-20c-5.523 0-10 4.477-10 10s4.477 10 10 10h20c5.523 0 10-4.477 10-10s-4.477-10-10-10z" fill="#55a4f9"/><path d="m340 457.806h46.632c-12.316 7.777-25.374 14.487-39.042 20h-7.59c-5.523 0-10-4.477-10-10s4.477-10 10-10zm40-150c0-5.523-4.477-10-10-10h-90c-5.523 0-10 4.477-10 10s4.477 10 10 10h90c5.523 0 10-4.477 10-10zm50 70h-90c-5.523 0-10 4.477-10 10s4.477 10 10 10h90c5.523 0 10-4.477 10-10s-4.477-10-10-10zm-50 40h-40c-5.523 0-10 4.477-10 10s4.477 10 10 10h40c5.523 0 10-4.477 10-10s-4.477-10-10-10z" fill="#a7d0fc"/></g></svg>